<?xml version="1.0" encoding="utf-8"?>
<!-- Generator: Adobe Illustrator 19.0.0, SVG Export Plug-In . SVG Version: 6.00 Build 0)  -->
<svg version="1.1" id="layer" xmlns="http://www.w3.org/2000/svg" xmlns:xlink="http://www.w3.org/1999/xlink" x="0px" y="0px"
	 viewBox="-153 -46 652 652" style="enable-background:new -153 -46 652 652;" xml:space="preserve">
<style type="text/css">
	.st0{fill:#002A53;}
	.st1{fill:#C3002F;}
</style>
<path class="st0" d="M-45.7,252.8l1.4-1.3c0.4,0.2,0.8,0.3,1.2,0.4l0.4,1.8c0.2,0,0.5,0,0.7,0c0.2,0,0.5,0,0.7,0l0.5-1.8
	c0.4-0.1,0.8-0.2,1.2-0.3l1.3,1.4c0.4-0.2,0.9-0.4,1.3-0.7l-0.4-1.8c0.3-0.3,0.6-0.5,0.9-0.9l1.8,0.5c0.3-0.4,0.5-0.8,0.8-1.2
	l-1.3-1.4c0.2-0.4,0.3-0.8,0.4-1.2l1.8-0.4c0-0.2,0-0.5,0.1-0.7c0-0.2,0-0.5,0-0.7l-1.8-0.5c-0.1-0.4-0.2-0.8-0.3-1.2l1.4-1.3
	c-0.2-0.4-0.4-0.9-0.7-1.3l-1.8,0.4c-0.3-0.3-0.5-0.6-0.9-0.9l0.5-1.8c-0.4-0.3-0.8-0.5-1.2-0.8l-1.4,1.3c-0.4-0.2-0.8-0.3-1.2-0.4
	l-0.4-1.8c-0.2,0-0.5,0-0.7-0.1c-0.2,0-0.5,0-0.7,0l-0.5,1.8c-0.4,0.1-0.8,0.2-1.2,0.3l-1.3-1.4c-0.4,0.2-0.9,0.4-1.3,0.7l0.4,1.8
	c-0.3,0.3-0.6,0.5-0.9,0.9l-1.8-0.5c-0.3,0.4-0.5,0.8-0.8,1.2l1.3,1.4c-0.2,0.4-0.3,0.8-0.4,1.2l-1.8,0.4c0,0.2,0,0.5-0.1,0.7
	c0,0.2,0,0.5,0,0.7l1.8,0.5c0.1,0.4,0.2,0.8,0.3,1.2l-1.4,1.3c0.2,0.4,0.4,0.9,0.7,1.3l1.8-0.4c0.3,0.3,0.5,0.6,0.9,0.9l-0.5,1.8
	C-46.5,252.4-46.1,252.6-45.7,252.8 M-41.5,241c2.2,0.1,4,1.9,3.9,4.2c-0.1,2.2-1.9,4-4.2,3.9c-2.2-0.1-4-1.9-3.9-4.2
	C-45.6,242.7-43.8,241-41.5,241"/>
<path class="st0" d="M-63.5,297.7c0,1-0.2,6.3,0.2,14.1c1.9-1.4,3.9-2.8,5.7-3.9c0.1-0.1,0.3-0.1,0.4-0.1c0.1,0,0.2,0,0.3,0
	c0.2,0.1,0.4,0.2,0.5,0.5l1.6,3.5c1.8-1,3.6-2,5.5-2.8l-2-3.2c-0.1-0.2-0.2-0.5-0.1-0.7c0.1-0.2,0.2-0.4,0.5-0.5
	c3.1-1.4,6.4-2.5,9.7-3.4c0.1,0,0.1,0,0.2,0c0.2,0,0.3,0.1,0.5,0.2c0.2,0.1,0.3,0.4,0.4,0.6l0.5,3.8c2.3-0.5,4.6-1,6.9-1.2l-0.9-3.9
	c-0.6,0.2-1.3,0.3-1.9,0.4c-0.1,0-0.1,0-0.2,0c-0.3,0-0.6-0.2-0.8-0.5l0,0c-0.7-1-1.3-2-1.6-2.7H-63.5z"/>
<path class="st0" d="M-49.3,305.6l4.6,7.6c1.2-0.5,2.5-0.9,3.9-1.4l-1.1-8.8C-44.4,303.7-46.9,304.6-49.3,305.6"/>
<path class="st0" d="M-31.6,309.9l-0.8-3.8c-2.4,0.3-4.8,0.7-7.1,1.3l0.5,3.9C-36.6,310.6-34.1,310.2-31.6,309.9"/>
<path class="st0" d="M-62.8,319.9c0.1,1.7,0.3,3.4,0.4,5c1.1-1.1,2.3-2.2,3.5-3.2l-3-2.8C-62.2,319.3-62.5,319.6-62.8,319.9"/>
<path class="st0" d="M9.5,324.9c0.2-1.6,0.3-3.3,0.4-4.9c-0.4-0.3-0.7-0.6-1-0.9l-2.8,2.8C7.3,322.7,8.4,323.8,9.5,324.9"/>
<path class="st0" d="M-34.4,363.8l8,16.6l8-16.6l-8-17L-34.4,363.8z M-25.7,358.7c-0.2,0.5-0.3,0.9-0.4,1.3c0.4-0.5,1.2-1,2.9-1.1
	c1.1,0,1.5-0.3,1.6-0.4c0.1-0.1,0.1-0.2,0.1-0.2v0l0.4-0.1c0,0,0.5,0.9,0,1.7c-0.4,0.6-1.1,0.9-2.3,0.9h-0.1c-0.3,0-0.5,0-0.7,0
	c-0.9,0-1.4,0.1-1.7,0.2c2.1,1.9,2.6,3.5,2.7,4.6l0,0.5l-0.3-0.3c-0.3-0.3-0.9-0.9-1.5-1.3c0.6,1,1.6,2.4,1.7,3.9l0,0.5l-0.4-0.4
	c0,0-0.9-0.9-1.6-1.5c0.5,1,1.3,2.8,1.4,4.3l-0.4,0.1c0,0-0.5-1-1-1.7c0.4,1.1,0.8,2.7,0.7,4.1l-0.4,0.1c0,0-0.3-0.8-0.6-1.5
	c0.1,1.1,0.2,2.8-0.5,4.2l-0.2,0.4l-0.2-0.4c-0.7-1.5-0.7-3.1-0.5-4.2c-0.3,0.7-0.6,1.4-0.6,1.4l-0.4-0.1c-0.1-1.4,0.3-3,0.7-4.2
	c-0.6,0.8-1.1,1.8-1.1,1.9l-0.4-0.1c0.1-1.6,0.9-3.4,1.4-4.4c-0.9,0.8-1.6,1.6-1.6,1.6l-0.4,0.4l0.1-0.6c0.1-1.4,1-2.9,1.7-3.8
	c-0.7,0.5-1.4,1.3-1.4,1.3l-0.3,0.3l0-0.5c0-1,0.5-2.6,2.6-4.6c-0.3-0.1-0.8-0.2-1.7-0.2c-0.2,0-0.5,0-0.8,0h-0.1
	c-1.2,0-2-0.3-2.3-0.9c-0.5-0.7,0-1.6,0-1.7l0.3,0.2c0,0,0,0.1,0,0.2c0.1,0.2,0.4,0.4,1.5,0.4c1.3,0.1,2.1,0.5,2.6,0.8
	c-0.7-1.5-0.6-2.9,0-4.6c0.4-1.4,0.3-2,0.3-2.1l0.3-0.1C-24.6,355.6-25.2,357.3-25.7,358.7"/>
<path class="st0" d="M1.3,313.5c-1.8-1.1-3.7-2.1-5.7-3l-2.1,3.4c2.1,0.9,4.2,2,6.1,3.2L1.3,313.5z"/>
<path class="st0" d="M-11,303l-1.1,8.8c1.3,0.4,2.7,0.9,4,1.4l4.6-7.6C-5.9,304.6-8.4,303.7-11,303"/>
<path class="st0" d="M-50,359.8L-50,359.8c0.4-0.7,4.6-7.2,4.7-7.3c0.1-0.2,0.3-0.2,0.5-0.2c0,0,0.1,0,0.3,0.1l17.5-31.1
	c0.1-0.2,0.3-0.5,0.7-0.5c0,0,0,0,0.1,0c0.1,0,0.2,0,0.2,0c0.8,0,2.4-0.4,3-1.9l0,0l0,0c0.2-0.4,0.3-0.9,0.3-1.3
	c0-2-1.6-3.6-3.6-3.6c-2,0-3.6,1.6-3.6,3.6c0,0.4,0.1,0.9,0.3,1.3c0.1,0.2,0.1,0.3,0,0.5l-16.6,32l0,0c0.3,0.2,0.3,0.5,0.2,0.8
	C-46.3,352.4-49.7,359.3-50,359.8 M-26.3,315.4c1.1,0,1.9,0.9,1.9,1.9c0,1.1-0.9,1.9-1.9,1.9c-1.1,0-1.9-0.9-1.9-1.9
	C-28.3,316.2-27.4,315.4-26.3,315.4"/>
<path class="st0" d="M-46.3,313.9l-2.1-3.5c-2,0.9-3.9,1.9-5.7,3l1.7,3.7C-50.5,315.9-48.4,314.8-46.3,313.9"/>
<path class="st0" d="M-21.2,309.9c2.5,0.3,5,0.7,7.4,1.4l0.5-3.9c-2.3-0.6-4.7-1-7.1-1.3L-21.2,309.9z"/>
<path class="st0" d="M-31.2,238.3c-0.6-0.6-0.8-1.3-1.6-2.2c-0.7-0.8-1.2-1.4-1.8-1.6c-2.1-0.7-3,0-3,0c-0.6-0.1-1.7-0.2-2.2,0.2
	c-0.2,0.2-0.3,0.3-0.1,0.3c0.6-0.1,1.3,0.2,1.8,0.3c0.8-0.2,1.5,0.1,2.2,0.4c0.2,0.1,0.4,0.5,0.1,0.4c-0.1,0-0.3,0-0.3,0
	c-1-0.3-1.5,0-1.8,0.2c0,0,0,0,0.1,0c0.1,0,0.2,0.1,0.3,0.1c0,0,0,0,0,0c0.5,0.2,1.2,0.2,1.5,0.4c0.7,0.3,1.1,0.4,2.7,2
	c0.8,0.8,1,1.5,2.1,2.1c0.1,0.1,0.3,0.2,0.5,0.3c0.2,0.1,0.5,0.2,0.8,0.3c1.1,0.5,2.2,1.1,2.2,1.1c0.7,0.2,1.4,0.7,1.8,0.3
	c0.3-0.4,0.5-1.1,0.5-1.4c0-0.4,0.1-0.7,0.2-1c-0.3,0.3-0.7,1-0.8,0.9c-0.4-1.2-1.4-2.1-1.4-2.1c-0.2,0.5-0.3,0.6-0.9,0.6
	C-29.4,240-30.4,239.2-31.2,238.3"/>
<path class="st0" d="M-18.9,247.7c-0.8,0.2-1.9,0-3.3-0.5c-0.4-0.1-0.8-0.3-1.2-0.4c-0.6-0.3-1.2-0.1-1.8-0.2c-1-0.1-2,0.6-2.1,0.7
	c-0.1,0.1-0.1,0.1-0.2,0.1c-1.3,0.3-1.4,0.9-1.4,1.2c0,0,0,0,0,0c0,0.1,0,0.1,0,0.2c0.1,0.1,0.1,0.1,0.2,0c0.3-0.2,0.6-0.3,0.9-0.4
	c0.1,0,0.3,0,0.3,0c0,0,0.1,0,0.1,0c0.1,0,0.3,0,0.4,0c0,0,0.1,0,0.4,0l0.7-0.1c0.9-0.2,1.3-0.1,1.1,0c-0.3,0.1-0.5,0.3-0.5,0.3
	c-0.9,0.3-1.2,0.5-1.2,0.7c0,0,0,0.1,0,0.2c0,0,0.1,0.1,0.1,0.1c0.1,0,0.8-0.2,1.3-0.1c0.2,0,1,0.2,1.9,0.2c0.3,0,0.5,0,0.8,0
	c1.9,0.1,3.2,0.4,3.2,0.4c0,0,0,0,0,0c0.8,0.4,2,0.5,2.3,0.5c0.1,0,0.1,0,0.1,0l0.1,0c0.2,0,0.6,0,0.7-0.3c0.2-0.3,0.1-1.2-0.1-1.8
	c-0.1-0.3-0.2-0.5-0.2-0.8c-0.3-1.4-0.5-2.8-0.5-2.8c0-0.1,0-0.1-0.1-0.1c-0.7-0.4-1.3-1.2-1.7-1.8l-0.2-0.2c0,0-0.1-0.1-0.2-0.1
	c-0.1,0-0.1,0-0.1,0.1l-0.3,0.7c0,0,0.3,0.8,0.4,2.3c0.1,1.1,0.1,1.2,0,1.5C-18.6,247.6-18.7,247.7-18.9,247.7"/>
<path class="st0" d="M20.8,361.4l-0.4-0.3l0.4-0.1c2.6-0.6,3.1-2.8,3.2-4.1c0.2-3.2-1.5-6.2-3.5-7.2c0.9,2.3,0.5,4.3-1.1,5.6
	c-0.3,0.3-1.3,0.6-2.3,0.6c-1.1,0-3-0.4-3.6-2.8c-0.4-1.7-0.6-3.6,0.5-5.9c-1.3,1.3-2.5,2.9-3.4,4.4c-1.7,2.8-3,11.1-4.4,13.7
	c-1.6,2.8-4.4,3.2-5.8,3.2c-0.1,0-0.6,0-0.7,0l0,0l-1-0.2l0.5,0.9c1.4,2.3,3.6,3.7,6.2,3.7c1,0,2.1-0.2,3.1-0.6
	c3-1.2,4.5-3.3,5.3-4.7l0.2-0.4l0.2,0.4c0.6,1.5,1.5,2.5,2.6,3.7c0.7,0.7,1.4,1.6,2.3,2.7c1.7,2.4,1.8,4.6,1.5,6
	c-0.1,0.4-0.2,0.8-0.3,1.1c1.6-1.2,3.5-3.4,4.3-7.4c0.6-3,0.4-5.7-0.6-8.1C22.9,363,21.4,361.8,20.8,361.4"/>
<path class="st0" d="M-95,273c1.4,0,2.6,0.5,3.5,1.6c0.9,1.1,1.3,2.1,1.1,3c-0.2,1.1-1.4,2.2-1.8,2.6c0.3,0.3,1.2,0.9,2.6,0.9
	c2.4,0,3.8-1.7,4.5-2.7l0.1-0.2l0.2,0.2c1.9,2.1,4.4,3.2,7.5,3.2h0.2c3.5-0.1,5.7-1,6.7-1.4c-1.4-0.2-4.8-1.4-8.6-7.1
	c-1.5-2.3-2.7-3.6-3.6-4.2l-0.2-0.2l0.2-0.2c2.2-1.6,3.5-3.7,3.8-6c0.4-2.5-0.4-4.3-0.7-4.8c-0.1-0.3-0.4-0.8-0.6-1.1
	c-0.1,0.3-0.2,0.7-0.4,1.1l0,0.1c-0.3,0.7-1.1,2.6-5.7,3.6c-4.8,1-5.9,2.4-6.3,3.4l-0.1,0.1l-0.2,0c-0.5-0.1-1-0.1-1.6-0.1
	c-2.5,0-8.5,0.6-10.1,6.6c-1.3,4.9,0.2,10.2,1.4,12.1c-0.1-1.5-0.2-5,1.9-7.9C-99.7,273.8-97.8,273-95,273"/>
<path class="st0" d="M53.4,270.7c-1.6-5.9-7.6-6.6-10.1-6.6c-0.5,0-1.1,0-1.6,0.1l-0.2,0l-0.1-0.1c-0.4-1-1.4-2.4-6.3-3.4
	c-4.6-1-5.4-2.9-5.7-3.6l0-0.1c-0.1-0.3-0.3-0.8-0.4-1.1c-0.2,0.3-0.5,0.8-0.6,1.1c-0.2,0.5-1,2.4-0.7,4.8c0.4,2.4,1.7,4.4,3.8,6
	l0.2,0.2l-0.2,0.2c-0.9,0.6-2.1,1.9-3.6,4.2c-3.8,5.6-7.2,6.8-8.6,7.1c1,0.5,3.3,1.4,6.7,1.4c0.1,0,0.2,0,0.2,0c3,0,5.6-1.1,7.5-3.2
	l0.2-0.2l0.1,0.2c0.7,1,2.1,2.7,4.5,2.7c1.4-0.1,2.3-0.7,2.6-0.9c-0.5-0.4-1.7-1.5-1.8-2.6c-0.2-0.9,0.2-1.9,1.1-3
	c0.7-0.8,2.1-1.4,3.7-1.6h0c0.1,0,0.2,0,0.3,0c1.3,0,3.6,0.4,5.4,1.9c1.9,1.5,2.7,4.2,2.9,4.8C53.6,276.8,54.1,273.7,53.4,270.7"/>
<path class="st0" d="M-15,290.4c0.5,0.8,1,1.7,1.3,2.7h7.7c0.1-0.2,1.1-2.2,0.6-3.9C-6.4,285.7-14.3,288.9-15,290.4"/>
<path class="st0" d="M44.3,274.2c-0.1,0-0.1,0-0.2,0c1.8,1.7,1.8,4.4,0.8,6.1c-3,4.6-9.1,5-15.5,5c-3.1,0-7.1-0.7-8.7-1
	c-5.2-1-9.5-3-12.8-5.8c-2.8-2.2-4.2-4.9-4.2-4.9l-0.2-0.3l0.3,0c0.5,0,1,0.1,1.5,0.1c6.1,0,8.8-3.2,9.6-4.5
	c0.4-0.6,0.6-1.3,0.8-2.2c-1.3,1.5-3.8,2.5-6.1,2.5c-0.2,0-0.4,0-0.6,0c-6.5-0.5-10.9-3.2-13.4-5.5c-0.1,0.8-0.3,1.4-0.3,1.5
	l-0.1,0.4c0.7,1.1,1.3,2.5,1.4,3.8c0,0.4-1.8-2.8-6.2-6.9c-0.9-0.7-1.9-1.4-3.1-2c-0.1,1.3-1.1,2.2-1.6,2.5
	c-0.7,0.5-1.5,0.8-2.5,0.8c-3,0-4.9-2.9-5-3.5c0,0-2.3,2.9,0.1,6.6c0.8,1.3,2.7,2.1,4.6,2.5l0.2,0c0,0-3,3.5-2.3,6.5
	c1,4.3,5.4,5.1,7,5.3c-0.2-0.2-0.4-0.5-0.6-1c-0.4-1.1-0.2-2.3,0.7-3.9c1.1-2.2,2.2-4.4,2.2-5.8v-0.6c0,0,1.5,1.1,3.2,3.9l0,0l0,0
	c1.1,2.2,5.4,9.6,11.9,15.6c0.5,0.5,1.3,1.1,2.1,1.7c0.6,0.5,1.2,1,1.6,1.3c0.9,0.8,1.7,1.6,2.5,2.3h-34.8c-0.6,0.5-1,0.9-1.5,1.3
	h37.4l0,0.2c0,0.6,0,1.3,0,1.9v0.1c0,11.6-0.4,20.7-1.2,28l0,0l0,0.1l0.1,0.1l0,0.5l0,0l0,0.1c-1.5,13.3-4.4,20.2-8.3,28.6
	c-1,2.3-2.4,4.6-3.9,6.9v0l-0.6,0.9l-0.2,0.2c-1.7,2.5-3.7,4.9-5.9,7.4l-0.2,0.2l-18.5-36.4l-18.5,36.4l-0.2-0.2
	c-2.3-2.6-4.4-5.2-6.2-7.7l0,0l-0.7-1l-0.1-0.1l0,0c-1.5-2.2-2.7-4.5-3.7-6.6c-5.9-12.8-9.5-22.3-9.6-56.4c0-1,0-2,0-3.1v-0.2H-39
	c-0.2-0.4-0.3-0.9-0.4-1.3h-25.4c1-0.9,2-1.7,3-2.3c0.5-0.3,1-0.6,1.6-0.9c2.5-1.5,5.3-3.2,6.3-4.4l0.2-0.3l0.1,0.3
	c1,2.8,3.9,4.2,5.1,4.3h0l0,0c0.1,0.1,0.4,0.1,0.6,0.1c0.1,0,0.2,0,0.2,0c-2.8-3.1-1.7-7.5-1.4-8.7c-2.1,0-2.8-2.3-2.8-2.3l-0.1-0.2
	l0.2,0c4.8-0.5,5.1-4.2,5.1-4.3l0.1-0.4l0.3,0.3c1.2,1.7-0.8,6.7-1.6,8.7c-0.5,1.7-0.3,3-0.1,3.7c0.2-1.4,0.7-2.8,1.4-4.6
	c1-2.6,2.6-6.1,1.8-8.9c-4.4,0.1-8.8-0.2-12.2-1.4c-0.2-0.1-0.5-0.3-0.5-0.3c0-0.1,2.6-3.8,8-6.9c-3.2,1.5-7.1,3.1-10.9,3.7
	c-0.4,0.1-0.9,0.1-1.4,0.1c-0.3,0-0.5,0-0.7,0c-0.2,0-0.3,0-0.4,0c-2.1,0-3.7-0.6-5-1.8c0,0,2.8,0.5,4.3,0.5c0.5,0,1,0,1.5-0.1
	c3.7-0.4,8.1-2.4,12.8-4.6c1-0.4,1.9-0.9,2.9-1.3c0-0.3-0.1-0.7-0.1-1c0-0.2,0-0.4,0-0.5c-1.2,0.5-2.6,1.2-3.6,1.7
	c-4.6,2.2-8.7,4.1-12.5,4.5c-0.7,0.1-1.3,0.1-1.9,0.1c-2.9,0-4.5-0.6-5.3-2.4c-0.1-0.2-0.1-0.4-0.2-0.6c-0.7-3.4,0.6-7,2.8-7.9
	c0.8-0.3,1.5-0.5,2.2-0.5c3,0,3.9,1.6,4.5,2.6c0.3,0.6,0.5,1.2,0.6,1.7c0.1-0.3,0.2-0.8,0.3-1.4c0.3-8.7-8.8-9.6-8.9-9.6l-0.3,0
	l0.1-0.3c0.4-0.9,1.9-2.9,7.1-6.9c3-2.4,5.2-5.2,5.7-7.5c0.3-2.7-2.3-4.9-3.9-5.5c-3.3-1.3-6.9-0.7-8,0.2c-0.2,3-1.9,5.9-6.6,11.3
	c-3.3,3.8-4.7,7.1-5.3,9.1l-0.1,0.5l-0.2-0.5c-2.7-5.9-8-6.5-10.2-6.5h-0.1c-1.6,0-2.6,0.2-3.2,0.4c1.4,0.4,4.6,2.2,5.1,9.7
	c0.2,3.4,1,5.2,1.8,6.4c0,0,0.1,0,0.2,0c4.1-0.1,5.4-5.6,5.4-5.8l0.2-0.9l0.7,0.6c0,0,1.7,1.6,2.6,3.7l0,0.1c2,4.5,1.4,8.6-1.8,11.7
	c0.7,0.8,1.5,1.9,2.4,3.3l0,0.1c0.5,0.7,0.9,1.3,1.4,1.9c3.1,2.3,6.2,3.2,10.1,3.2c1.7,0,3.4-0.2,5.1-0.5l0.6-0.1l-0.4,0.4
	c-5.3,5.8-11.6,8.7-20,9.3c-1.1,0.1-2.1,0.1-3.1,0.1c-5.5,0-9.4-1.2-11.7-3.6c-2-2.1-2.1-4.6-2-5.5c0.1-1,0.3-1.8,0.5-2.3
	c-1.4,0.2-2.4,1-3.1,1.9c-1,1.6-1.9,4.1-1.2,6.8c0.5,2.1,1.9,3.7,4.1,4.9c1,0.4,2.1,0.7,3.2,1l0.4,0.1L-93,290
	c-4.9,3.5-5.5,9.6-5.5,9.8l-0.1,1.6l1-1.2c0,0,2.9-3.5,8.5-4.3c4.2-0.6,8.7-2.8,9.3-3.2c0.5-0.3,0.6,0.1,0.3,0.4
	c-0.3,0.3-4.3,3.2-6.9,4.8c-1.2,0.8-2.2,1.4-3.3,2.1c-3,2.4-4.4,7.6-3.1,11.7c0.3,1,0.8,1.9,1.4,2.6c1.9-5.8,10.3-11,15.3-13.5
	l0.3-0.1l0,0.3c-0.1,3.9,0.4,6.3,1.7,8c1,1.4,2.7,1.6,4,1.6c0.7,0,1.3-0.1,1.7-0.2c-0.9-0.7-2.9-2.9-1.5-7.8
	c0.7-2.4,1.9-4.4,3.3-6.2c0,12.8,0.3,22.3,1.2,30c0.7,6.4,1.7,11.4,3.1,16.1c-2-4.6-6.5-10.7-17.1-15.3l-0.6-0.2l0.6-0.1
	c1.1-0.2,2.3-0.6,3.5-1.1c1.3-0.5,2.9-1.2,4.2-1.2c0.1,0,0.1,0,0.2,0c2.3,0.1,3.5,1.9,4.1,3c0-1.6-0.3-4.9-2.6-7.3
	c-1.6-1.7-3.9-2.5-6.8-2.5c-0.2,0-0.4,0-0.6,0l-0.2,0l0-0.2c0.2-1,0.2-2.6-0.5-4.2c-0.9-1.7-2.6-2.9-5.1-3.6l-1.2-0.3l0.7,1.1
	c0.1,0.1,1.5,2.3,0.7,4.3c-0.6,1.7-2,2.8-3.8,3c-0.4,0.1-0.9,0.1-1.3,0.1c-2.7,0-5-1.2-6.3-3.3c-1.9-2.9-2.3-5.8-1.3-9.6
	c0.2-0.9,0.6-1.6,0.8-2.1c-1.8,1.5-6.4,7.3-2.6,25.2c3.4,16,0.3,23.3-0.8,25.1l0,0c-0.2,0.3-0.4,0.6-0.6,0.8l1,0
	c0.5,0,5.2-0.1,8-3.4c1.6-1.9,2.3-4.4,2-7.5l0-0.4l0.7,0.4c1.7,1,4.4,2.4,5.5,5.9c0.2,0.5,0.2,0.9,0.3,1.2c0.2-0.2,0.4-0.6,0.6-1
	c0.5-1.1,3-7.1-1.2-13l-0.3-0.4l0.5,0.1c1.4,0.4,6.4,1.8,11.2,4.9c5.1,3.3,8.4,7.2,9.8,11.8c0-0.2,0-0.3,0-0.5
	c0.1-1.4,0.2-3.8-0.4-6.4c1.2,3.5,2.7,6.9,4.4,10.7c3.3,7.1,8.9,14.4,16.7,21.6c6.1,5.7,11.7,9.5,13.2,10.6l0.7,0.4l0.6-0.4l0,0
	c1.6-1,7.1-4.9,13.2-10.6c7.8-7.2,13.4-14.5,16.7-21.6c1.3-2.8,2.4-5.3,3.4-7.9c-0.2,1.7-0.1,3.2,0,4.2c0,0.2,0,0.4,0,0.5
	c1.3-4.6,4.6-8.5,9.8-11.8c4.8-3,9.8-4.5,11.2-4.9l0.5-0.1l-0.3,0.4c-4.2,5.9-1.7,11.9-1.2,13c0.2,0.4,0.4,0.8,0.6,1
	c0-0.3,0.1-0.7,0.3-1.2c1.1-3.5,3.7-5,5.5-5.9l0.7-0.4l0,0.4c-0.3,3.1,0.4,5.6,2,7.5c2.8,3.3,7.5,3.4,8,3.4l1,0
	c-0.2-0.2-0.4-0.5-0.6-0.8l0,0c-1.1-1.9-4.2-9.1-0.8-25.1c1.3-6.3,2.5-15,0.3-21.1c-0.8-2.3-1.9-3.5-2.6-4.1
	c0.2,0.4,0.4,0.9,0.6,1.7c1,3.9,0.3,7.9-1.9,10.3c-1.3,1.5-3.9,3-6.4,3c-1.4,0-3.4-0.5-4.5-3c-0.8-1.9,0.6-4.1,0.7-4.4l0.7-1.1
	l-1.3,0.3c-2.5,0.7-4.2,1.9-5.1,3.6c-0.8,1.5-0.7,3.1-0.5,4.2l0,0.2l-0.2,0c-0.2,0-0.4,0-0.6,0c-2.9,0-5.2,0.8-6.8,2.5
	c-2.3,2.4-2.6,5.8-2.6,7.3c0.5-1.1,1.8-2.8,4.1-3c0.1,0,0.1,0,0.2,0c1.3,0,2.9,0.7,4.2,1.2c1.2,0.5,2.4,0.9,3.5,1.1l0.6,0.1
	l-0.5,0.2c-8.7,3.8-13.3,8.6-15.8,12.8c2.5-9,3.6-19.9,3.6-39.4c0-1.3,0-2.7,0-4.1c2.4,3,3.6,5.9,3.2,9.6c0.2-0.4,0.5-1,0.6-1.9
	c0.8-7.7-8-13.9-9.5-15.1c-1.6-1.4-3.2-2.7-3.6-3.2c-5-5.2-6.2-8-7-9.3c3.5,3.5,9.8,5.3,9.9,5.3l0.2,0l0,0.2c0,1.4-0.7,2.6-1,3.1
	c7.9,4.4,12.3,9.4,13.1,14.7c0.8,5.4-2.4,9.5-3.9,11.2l1-0.2c3.9-0.8,5.2-2.3,6.1-4.6c0.6-1.6,0.6-3.5-0.2-5.7l-0.2-0.6l0.5,0.4
	c1.8,1.5,4.6,3.5,8.7,6.2c5.4,3.5,5.9,6,6,7.5c0.8-0.8,1.4-1.8,1.7-3c1.2-3.8,0.4-7.3-2.4-10.4c-1.3-1.4-2.4-2.2-3.9-3.3
	c-1.5-1.1-3.4-2.4-6-4.8c0,0-0.6-0.7,0.2-0.3c0.8,0.4,4.7,1.4,8.1,2.2l1.5,0.3c5.1,1.2,6.8,4.1,7.4,5.4c0.2-0.8,0.4-2.2,0.3-3.8
	c-0.2-3.1-1.6-5.4-4.2-6.7l-0.5-0.3l0.6-0.1c3.1-0.5,5.6-1.4,7.5-2.9c2.6-2.5,3.2-5.6,1.8-9.3C49.8,277.4,48.5,274.2,44.3,274.2
	 M-16.8,364.2l-8.9,18.4c-0.1,0.3-0.4,0.4-0.7,0.4c-0.3,0-0.6-0.2-0.7-0.4l-8.8-18.4c-0.1-0.2-0.1-0.5,0-0.7l8.8-18.8
	c0.1-0.3,0.4-0.5,0.7-0.5c0.3,0,0.6,0.2,0.7,0.5l8.9,18.8C-16.7,363.8-16.7,364-16.8,364.2"/>
<path class="st0" d="M-53.2,368.4c-0.1,0-0.5,0-0.7,0c-1.4,0-4.4-0.3-5.8-3.2c-1.7-3.5-0.6-7.7-4.2-13.9c-1.4-2.4-3-4.1-4.3-5.2
	c1.8,2.8,1.6,4.9,1.1,6.9c-0.6,2.5-2.5,2.8-3.6,2.8c-1,0-1.9-0.3-2.3-0.6c-1.6-1.3-2-3.3-1.1-5.6c-1.9,1-3.7,4-3.5,7.2
	c0.1,1.3,0.6,3.5,3.2,4.1l0.4,0.1l-0.4,0.3c-0.6,0.4-2.1,1.6-3.1,4c-1,2.4-1.2,5.1-0.6,8.1c0.8,4.1,2.7,6.3,4.3,7.4
	c-0.1-0.3-0.3-0.6-0.3-1.1c-0.3-1.5-0.2-3.7,1.5-6c0.8-1.1,1.6-1.9,2.3-2.7c1.1-1.2,2-2.2,2.6-3.7l0.2-0.4l0.2,0.4
	c0.8,1.5,2.3,3.5,5.3,4.7c1,0.4,2.1,0.6,3.1,0.6c2.5,0,4.8-1.3,6.1-3.7l0.5-0.9L-53.2,368.4L-53.2,368.4z"/>
<path class="st0" d="M-33.8,292.7c-0.5-3.2-1.6-6-2.8-8.3c-2.9,4.8-0.9,10.7,0.4,13.5L-33.8,292.7z"/>
<rect x="466.4" y="178.1" class="st1" width="7.3" height="204.5"/>
<rect x="-126.4" y="178.2" class="st1" width="2.2" height="61"/>
<rect x="73.9" y="178.2" class="st1" width="4.7" height="132.7"/>
<path class="st0" d="M233.9,310.9h-7.7l-16.8-41.7h5.9l14.7,38.4l14.8-38.4h5.8L233.9,310.9z M160,339.8c14.1,0,19.1,5.9,19.1,22
	c0,16-5.1,21.9-19.1,21.9c-14.1,0-19.2-5.9-19.2-21.9C140.8,345.8,146,339.8,160,339.8 M160,379c10.1,0,13.5-4.1,13.5-17.2
	c0-13.2-3.4-17.2-13.5-17.2c-10.1,0-13.5,4.1-13.5,17.2C146.6,375,149.9,379,160,379 M293.1,339.8c14.1,0,19.2,5.9,19.2,22
	c0,16-5.1,21.9-19.2,21.9c-14.1,0-19.2-5.9-19.2-21.9C273.8,345.8,279,339.8,293.1,339.8 M293.1,379c10.1,0,13.5-4.1,13.5-17.2
	c0-13.2-3.4-17.2-13.5-17.2c-10.1,0-13.5,4.1-13.5,17.2C279.6,375,283,379,293.1,379 M200.4,254.2c-2,0-3.6,1.6-3.6,3.6
	c0,2,1.6,3.6,3.6,3.6c2,0,3.6-1.6,3.6-3.6C204,255.8,202.4,254.2,200.4,254.2 M366.1,254.2c-2,0-3.6,1.6-3.6,3.6
	c0,2,1.6,3.6,3.6,3.6c2,0,3.6-1.6,3.6-3.6C369.8,255.8,368.1,254.2,366.1,254.2 M140,207.5c7.5,1.4,10.2,6.7,10.2,15.4
	c0,12.2-6,16.3-20.2,16.3h-25.1v-60.9h22.3c15.5,0,21,3.4,21,15.6C148.3,201.4,145.8,206.1,140,207.5 M117.8,203.3h9.6
	c6.4,0,8.4-1.6,8.4-7.7c0-6-2.2-7.5-9.1-7.5h-8.9V203.3z M127.8,229.3c7.2,0,9.2-1.5,9.2-8.1c0-7.2-2.2-9-9.6-9.1h-9.7v17.3H127.8
	 M169.5,210.5c4.9-1.8,9.4-2.9,13-2.9h3.5v-11h-1c-5.5,0-11.3,1.4-17,6.2l-0.9-6.2h-10.4v42.5h12.8V210.5z M203.5,240.3
	c6.1,0,11.6-2.2,17.6-7l1,5.9h10.1v-42.5h-12.7V226c-4.6,2.3-7.5,3.5-10.6,3.5c-3.5,0-4.7-1.3-4.6-5v-27.9h-12.8v31.8
	C191.5,236.3,195.5,240.3,203.5,240.3 M252.7,210.1c5-2.5,8.4-3.9,11.8-3.9c3.1,0,4.1,1.1,4.1,5v27.9h12.7v-31.9
	c0-7.7-4.1-11.8-11.9-11.8c-6,0-12.2,2.7-18.2,7.5l-1-6.3h-10.4v42.5h12.8V210.1z M310.2,240.2c-16.1,0-22.2-6.5-22.2-22.2
	c0-16.8,6.2-22.5,21.6-22.5c14.5,0,20.1,5.1,20.2,14.8c0,7.8-3.7,11.9-12.9,11.9h-15.4c0.8,6.4,3.6,7.8,10.1,7.8
	c3.9,0,10.1-0.3,15.9-1l1.2,7.9C323.8,239.4,316.3,240.2,310.2,240.2 M310.1,204.8c-6.4,0-8.5,1.7-8.8,9.7h12.1c3.5,0,4-2,4-4.4
	C317.4,206.1,315.7,204.8,310.1,204.8 M353.7,229.6c-3.2,0-4.8-1.4-4.8-4.3v-47h-12.7v50.2c0,7.5,4.7,11.7,12.3,11.7
	c2.8,0,8-0.6,10.2-1.7l-1.5-8.9H353.7z M190.4,310.9v-31.4c0-7.5-3.9-11.5-11.2-11.5c-6.4,0-12.7,2.9-19.3,8l-0.4-6.9h-4.6v41.7h5.5
	V280c7.1-4.7,11.9-7.2,17.3-7.2c5.1,0,7.2,2.2,7.2,8.2v29.9H190.4z M197.7,310.9h5.4v-41.7h-5.4V310.9z M287.9,309.8
	c-3.5,1.4-11,2.1-15.8,2.1c-14,0-19.4-6-19.4-22.1c0-16.3,5.4-21.8,18.7-21.8c12,0,17.3,4.4,17.4,13c0.1,7.5-2.8,11.6-9.6,11.6
	h-20.9c0.7,11.4,4.9,14.5,14.5,14.5c4.9,0,10.4-0.5,14.4-1L287.9,309.8z M271.7,272.8c-9.7,0-13.1,3.8-13.3,15.6H278
	c4.3,0,5.4-3.1,5.3-7.2C283.3,275.3,279.8,272.8,271.7,272.8 M110.6,371.7v-48.6h-5.7v49.2c0,5.9,3.5,10.3,11,10.3h22.6v-4.7h-21.6
	C112.8,377.9,110.6,375.8,110.6,371.7 M211.1,339.8c-6.4,0-12.7,2.9-19.3,8l-0.4-6.9h-4.6v41.7h5.5v-30.8c7.1-4.7,11.9-7.2,17.3-7.2
	c5.1,0,7.2,2.2,7.2,8.2v29.9h5.4v-31.4C222.3,343.8,218.4,339.8,211.1,339.8 M260.7,323.1h5.4v59.5h-4.2l-0.6-6.5
	c-5,4.4-10.5,7.5-16.7,7.5c-10.8,0-14.9-7-14.9-22c0-16.1,4.8-21.9,15.6-21.9c5.2,0,10.4,1.3,15.4,3.9V323.1z M260.7,347.7
	c-5.6-1.9-9.6-3-14.3-3c-8,0-11,3.9-11,17c0,13.2,3,17.2,10.8,17.2c4.9,0,8.5-2,14.6-6.6V347.7z M344.1,339.8
	c-6.4,0-12.7,2.9-19.3,8l-0.4-6.9h-4.6v41.7h5.5v-30.8c7.1-4.7,11.9-7.2,17.3-7.2c5.1,0,7.2,2.2,7.2,8.2v29.9h5.4v-31.4
	C355.3,343.8,351.4,339.8,344.1,339.8 M126.1,311.9c15.7,0,21.2-6.5,21.2-23.5v-37h-5.6v37c0,13.7-4.1,18.5-15.6,18.5
	c-11.5,0-15.6-4.8-15.6-18.5v-37h-5.6v37C104.9,305.5,110.4,311.9,126.1,311.9 M317.6,268.1c-5.3,0-10.2,3-16.6,8l-0.4-6.9H296v41.7
	h5.5V280c6.2-4.2,10.6-6.8,15.8-6.8h1.1l1.4-5C318.6,268.1,318.4,268.1,317.6,268.1 M363.4,310.9h5.4v-41.7h-5.4V310.9z M441,269.2
	l-14.9,38.3l-14.6-38.3h-5.9l18.1,44.6c-2.2,5.4-5.4,9.2-12,11.4l0.7,3.5c9.4-1,13.7-7.7,16.6-14.9l17.9-44.6H441z M346.4,288.8
	l-12.9-2.4c-4.1-0.9-6.4-2-6.4-7c0-5.5,3.1-6.7,11.4-6.6c4.9,0,11.5,0.5,15.8,1l0.6-3.7c-3.8-1.4-12.4-2.1-17.1-2.1
	c-11-0.1-16,2.4-16,11.4c0,7,2.9,10.1,9.3,11.4l12.8,2.4c4.1,0.8,6.8,1.9,6.8,6.8c0,5.8-3.2,7.2-12.9,7.2c-4.9,0-10.4-0.7-14.4-1.2
	l-0.6,3.7c3.5,1.4,11.2,2.2,16,2.2c11.6,0,17.3-2.4,17.3-11.9C356,293,352.8,290.1,346.4,288.8 M394.6,307.2c-4.1,0-6.2-2.1-6.2-6.3
	v-27.4H402l-1.7-4.3h-11.8v-12.7H383v12.7h-7.3v4.3h7.3v28c0,6.7,3.5,10.4,10.4,10.4c2.5,0,6.2-0.5,8.7-1.2l-0.7-4
	C399,307.1,396.8,307.2,394.6,307.2"/>
<path class="st0" d="M-4.3,236.9l-0.2,0l0.2,0.1c0.5,0.4,1.4,1.5,2,1.5c0.4,0,0.6-0.1,0.8-0.2l0,0l0,0c0.3-0.9-0.2-3.1-0.9-3.8
	l-0.2-0.2l0,0.3c0,0.4,0,0.9-0.3,1.4C-3.2,236.5-3.7,236.8-4.3,236.9"/>
<path class="st0" d="M-55.5,319.1c0.5-0.3,1-0.7,1.5-1l-3.6-8.1c-1.8,1.2-3.8,2.6-5.6,4c0,0.5,0.1,1,0.1,1.5l5.6,5.3
	C-56.8,320.1-56.1,319.5-55.5,319.1"/>
<path class="st0" d="M10.3,313.7c-1.6-1.2-3.6-2.6-5.5-3.8L1.1,318c1,0.7,2,1.3,2.9,2l0.8,0.6l5.5-5.5
	C10.3,314.7,10.3,314.2,10.3,313.7"/>
<path class="st0" d="M10.6,297.7h-29.2l-0.7,3.1l-0.7,3.7c2.3,0.3,4.6,0.7,6.9,1.2l0.5-3.9c0-0.2,0.2-0.5,0.4-0.6
	c0.2-0.1,0.3-0.2,0.5-0.2c0.1,0,0.1,0,0.2,0c3.3,0.8,6.6,2,9.7,3.4c0.2,0.1,0.4,0.3,0.5,0.5c0.1,0.2,0,0.5-0.1,0.7l-2,3.3
	c1.9,0.8,3.7,1.8,5.5,2.9l1.6-3.6c0.1-0.2,0.3-0.4,0.5-0.5c0.1,0,0.2,0,0.3,0c0.2,0,0.3,0,0.4,0.1c1.9,1.1,3.9,2.5,5.6,3.7
	C10.8,303.9,10.6,298.7,10.6,297.7"/>
<path class="st0" d="M-32,300l1.1,4.9c0,0,0,0.1,0,0.1l1,4.7c1.2-0.1,2.3-0.1,3.5-0.1c1.1,0,2.3,0,3.4,0.1l2-9.3l0.5-2.7h-6.9
	C-28.8,298.7-30.4,299.5-32,300"/>
<path class="st0" d="M-8.2,352.2c0.2,0,0.4,0.1,0.5,0.3c0,0.1,2.6,4.3,4.2,6.9l0.7,1l-0.1-0.2c-1-2.1-3.9-8.1-3.9-8.1
	c-0.1-0.3,0-0.6,0.2-0.7l0.1,0l-15.7-30.5c-0.9,1.2-2.2,1.6-2.9,1.7l16.6,29.9C-8.3,352.2-8.2,352.2-8.2,352.2"/>
<path class="st0" d="M-33.4,208.5c0.5,0.2,1.1,0.4,1.6,0.7c0.3,0.2,0.9,0.5,1.7,1l0.6-0.8c-0.6-0.4-1.2-0.7-1.8-1
	c-0.6-0.3-1.3-0.6-1.9-0.8L-33.4,208.5z"/>
<path class="st0" d="M-29.9,207.5l0.9-1.5c-0.4-0.2-0.8-0.4-1.2-0.6c-0.4-0.2-0.8-0.4-1.2-0.6l-0.6,1.6c0.4,0.2,0.9,0.4,1.3,0.6
	C-30.4,207.3-30.2,207.4-29.9,207.5"/>
<path class="st0" d="M-37.3,209.7c1.4,0.3,2.6,0.7,3.9,1.3l0.4-0.9c-1.9-0.8-3.5-1.2-4.3-1.3L-37.3,209.7z"/>
<path class="st0" d="M-25.8,208.1l-1.2,1.3c0.5,0.4,1,0.9,1.4,1.3l1.6-1.1C-24.7,209.1-25.2,208.6-25.8,208.1"/>
<path class="st0" d="M-32.2,211.6c1.1,0.6,2.1,1.3,3,2.1l0.7-0.6c-0.9-0.9-2.2-1.8-3.3-2.4L-32.2,211.6z"/>
<path class="st0" d="M-34.7,208.1l0.2-1c-1.1-0.3-2.1-0.5-2.7-0.6l0,1C-36.7,207.6-35.8,207.8-34.7,208.1"/>
<path class="st0" d="M-23.9,187.4c-0.2,0.5-0.3,0.8-0.4,1.2c-0.7,2.1-0.6,3.6-0.6,4.1c0.3,0.6,0.6,1.3,0.9,2
	c1.3,3.9,0.9,8.4-1.2,12.5c0.6,0.5,1.2,0.9,1.7,1.4c0,0,0,0,0,0c0.8-2.8,1.8-6.3,3.5-8.7c0.8-1.1,2.4-2.3,4.2-3.8l0.6-0.5
	c0.6-0.5,1.4-1.1,2.1-1.7c0-0.5-0.1-0.8-0.1-0.9l-1.7,0.7l0.7-1.7c1.3-3.3,1.1-6.1,0.8-7.3c-1.5,2.4-2.7,3.1-2.7,3.1l-0.4,0.2
	l0.1-0.4c0-0.1,2.1-6.3-0.5-10.7l0,0c0.2,2.8-1.1,5.3-1.2,5.4l-1.3,2.4l-0.2,0v-2.8c0-1.2-0.2-7.5-4.8-9.5c1.6,2.3,2.6,6.4,2.3,7
	c0,0.1-0.1,0.1-0.1,0.1c0,0-0.1,0-0.1,0c-0.3-0.2-0.6-0.3-0.7-0.3l0,0c0.7,2,0.4,3.7,0.1,4.8C-23.1,185.4-23.5,186.5-23.9,187.4"/>
<path class="st0" d="M-35.3,205.5l0.3-1.8c-0.7-0.2-1.5-0.3-2.2-0.4l0,1.9C-36.7,205.2-36.1,205.3-35.3,205.5"/>
<path class="st0" d="M-45.2,195.1C-45.1,195.1-45.1,195.1-45.2,195.1c0.1,0,0.2-0.1,0.2-0.2c0.2-0.3,0.4-0.7,1.3-1
	c0.1,0,0.2,0,0.2,0c0.3,0,0.6,0.1,0.8,0.4c0.3,0.3,0.4,0.8,0.3,1.2c-0.1,0.8-0.9,1.2-1.6,1.2c-0.2,0-0.4,0-0.6-0.1
	c-0.2,0.2-0.1,0.5-0.1,0.7c0.2,0.8,0.8,1.6,1,1.6c2.1-0.4,2.8-1.7,3.5-3.1c0.2-0.3,0.3-0.7,0.5-1c1.1-1.9,2.5-2.3,3.2-2.5
	c0.8-0.2,1.6-0.4,2.3-0.4c0.9,0,1.8,0.2,2.5,0.6c2,1.1,2.5,3.3,2.5,3.3c0.7,3.1-0.1,5.9-1.5,8.1c0.3,0.1,0.5,0.3,0.8,0.4
	c0.6,0.3,1.2,0.6,1.8,1l0.5,0.3l-1.4,2.3c0.3,0.2,0.6,0.4,0.9,0.6c0.4-0.5,0.6-0.9,0.7-0.9c2.4-3.9,3-8.4,1.7-12.3
	c-1-2.8-2.8-5-5-5.8c-1.3-0.5-2.6-0.7-3.8-0.7c-2.1,0-3.8,0.7-4.8,1.2c-1.2,0.7-3,1.4-3.1,1.4c-2.2,0.6-3.8,1.4-4.6,2.4
	C-46,194.1-45.4,194.8-45.2,195.1"/>
<path class="st0" d="M-28.3,210.1L-29,211c0.5,0.4,1,0.8,1.4,1.3l0.8-0.7C-27.2,211.1-27.7,210.6-28.3,210.1"/>
<path class="st0" d="M-28.7,237.9c0.1,0.1,0.4,0.3,1.1,0.1c0.1-0.1,0.3-0.2,0.5-0.1c0.7,0.3,1,1.3,1.3,1.8l1-0.8
	c0.1-0.1,0.1-0.1,0.2-0.1c0.2,0.1,0.1,0.4,0.3,1c0.1,0.3,0.3,0.5,0.6,0.7c-0.1-1.3,0.1-1.8,0.5-2.2c-1.2-1-3-1.6-3.9-2
	C-27,237.3-28.3,237.4-28.7,237.9"/>
<path class="st0" d="M-43.5,196c0.2,0,0.5-0.1,0.5-0.3c0.1-0.3,0-1.1-0.7-1c-0.2,0-0.2,0.2-0.1,0.2c0.2,0.1,0.4,0.6,0.2,1
	C-43.6,195.9-43.6,195.9-43.5,196"/>
<path class="st0" d="M-18.6,200.9c-1.4,2-2.4,5.3-3.1,7.9l-0.2,0.7c-0.4,1.3-0.7,2.3-1,3.2c-1.4,3.6-5.7,4.3-5.8,4.4
	c0,0-0.1,0-0.1,0c-0.3,0-0.5-0.1-0.7-0.4c-0.5-0.7-0.6-1.5-0.6-2.3c-1-0.8-2.1-1.5-3.3-2.1c-1.3-0.6-2.6-1.1-4-1.4
	c-0.4,0.3-0.7,0.6-0.9,0.8l-0.1,0.1c-2.2,2.2-3.3,4.4-3.6,6.8c0,0.1,0,0.2,0,0.3l0,0.1c0,0.7-0.3,2.1-0.9,3.2l0,0
	c0.2-0.1,0.5-0.3,0.8-0.5c0.1,0,0.1-0.1,0.2-0.1c0.3,0,0.5,0.5,0.5,0.7c0.8,4.4,4.3,7.7,7,8.1c0.1,0,0.2,0.1,0.4,0.3
	c0.7,0.7,2.6,2.4,7.1,4c4.2,1.5,4.9,2.3,6.5,4.7c0.7,1,1,1.9,1,2.7c0.2-0.4,0.4-0.9,0.5-1.3c0.2-0.5,0.2-0.6,0.3-0.6l0.1,0
	c0.1,0,0.1,0.1,0.2,0.3c0.1,0.3,0.4,1.2,0.4,1.4c0.5,1,1.3,1.5,2,1.9l0-0.1c-0.3-0.5-0.7-1.1-0.8-2.3c-0.1-0.7-0.1-1.4-0.2-2
	c0-0.5-0.1-0.7-0.1-1c-0.1-0.4-0.2-0.8-0.2-1c-0.1-0.4-0.2-0.6-0.1-0.7c0,0,0.1-0.1,0.2-0.1l0,0c0.2,0,1.3,0.6,1.8,1.1
	c2.3,2.5,5.7,2.4,6.8,2.4c0.1,0,0.2,0,0.2,0h0c0.1,0,2.5,1.6,5.3-0.2c-0.9-0.2-2.2-1.4-3.1-2.3c-0.6-0.6-1-0.6-1.7-1.3
	c-0.2-0.2-0.3-0.3-0.5-0.5c-0.3-0.3-0.5-0.5-0.7-0.8c-0.4-0.4-0.6-0.6-0.8-0.7c-0.2-0.1-0.3-0.2-0.3-0.4l0-0.1l0.1-0.1
	c0.1-0.1,0.1-0.1,0.2-0.1c0,0,0.1,0,0.1,0c0.1,0,0.2,0,0.3,0c0.4,0,0.7,0,1.1-0.1l0.2,0c-1.4-0.4-2.7-1.6-3.5-2.3
	c-0.1-0.1-0.3-0.2-0.4-0.3c-0.3-0.2-0.6-0.4-0.5-0.6c0-0.2,0.2-0.3,0.6-0.4c-0.4-0.2-0.6-0.6-0.9-1.1c-0.7-1.1-1.3-2.1-4.3-3.4
	c-0.2-0.1-0.3-0.1-0.4-0.2c-0.3-0.1-0.4-0.2-0.4-0.3c0-0.1,0-0.2,0.2-0.2c4-1,7.7-4.3,9.3-6.9c1.6-2.6,2.4-5.5,2.4-5.6
	c0.1-0.2,0.2-0.4,0.3-0.5c3.3-2,6.5-4.2,7.9-6.2v0l-0.1,0c-0.6,0-2.1-0.2-2.2-0.6c0-0.2,0.1-0.3,0.4-0.5c0.7-0.5,2.3-1.5,3.4-4.5
	c-0.8,0.3-1.6,0.3-2,0.3c-0.1,0-0.2,0-0.3,0c-1.6-0.1-1.7-0.4-1.7-0.5c-0.1-0.2,0.1-0.3,0.5-0.5c0.9-0.6,3-2,3.9-5.4
	c0.2-0.6,0.2-1.3,0.1-1.6c-0.9,1.1-2,1.6-2.5,1.7c-0.1,0-0.4,0.1-0.6,0.1c-0.3,0-0.4-0.1-0.5-0.2c-0.1-0.1,0-0.3,0.3-0.7
	c0.7-1.1,2.2-3.6,2-7.6c0-0.6-0.2-1.3-0.3-1.5c-0.6,2.6-2.2,4.2-2.5,4.5l-0.1,0.1c-0.5,0.5-1,0.9-1.3,0.9c0,0-0.1,0-0.1,0
	c-0.2-0.1-0.1-0.3,0.1-1c0-0.1,0.1-0.2,0.1-0.3c0.9-4.3-0.1-7.9-1.4-9.9c-0.2-0.3-0.4-0.5-0.5-0.6l0,0c0.6,1.8,0.7,3.8,0.2,6.1
	c-0.5,2.5-1.6,4.2-1.6,4.3c-0.4,0.6-0.7,1-1.1,1.1h-0.1l-0.1-0.1c-0.1-0.1,0-0.2,0-0.4c0-0.3,0.1-0.8,0.1-1.5c0-0.2,0-0.3-0.1-0.4h0
	c-0.6,2.5-2.5,5.2-5.6,8.1l-0.1,0.1c-1,0.9-2.1,1.9-3.2,2.7C-16.5,198.8-18,200-18.6,200.9 M-12.3,198.9c3.3-2,4.9-3.9,5.7-4.8
	c0.4-0.4,0.6-0.6,0.7-0.6h0l0,0c0,0,0.1,0.1,0.1,0.2c0,0.7-1.3,3.2-5.7,6c-0.9,0.6-1.7,1.1-2.2,1.6c-1.8,1.5-2.3,3-2.7,6.5
	c-0.1,0.6-0.1,1.1-0.2,1.7c-0.3,2.5-0.5,4.5-1.4,6.2c-0.5,0.8-1.4,1.1-1.7,1.1c-0.1,0-0.1,0-0.1,0c-0.2-0.2-0.1-0.4,0.1-0.8
	c0.1-0.2,0.3-0.5,0.4-0.8c0.6-1.6,1.2-4,1.6-7.5c0.5-3.7,0.8-5.2,3-7.1C-14,200-13.1,199.4-12.3,198.9"/>
<path class="st0" d="M-28.4,214.9c1-0.3,3.2-1.1,4.1-3.2c0.1-0.2,0.1-0.3,0.2-0.5l-1.3,0.9l-3,2.6
	C-28.5,214.7-28.5,214.8-28.4,214.9"/>
<path class="st0" d="M-52.3,200.4c0.1-0.2,0.4-0.5,1.5-0.7c1.4-0.2,1.9-0.3,2.3-0.4c0.9-0.3,3-0.7,3.5,0c-0.1,0.1-0.4,0.2-0.6,0.2
	c-0.2,0-0.3,0.2-0.3,0.2c-0.9,0.9-2.4,1.8-2.9,1.9c-0.5,0.1,0.3-0.5,0.9-1.1c0.3-0.3,0.9-1,1-1.2c0,0-0.3,0.1-0.4,0.1
	c-0.3,0.4-0.7,0.9-1.2,1.3c-1.5,1-1.7,1.5-1.8,1.5c-0.1,0.1-0.3,0.4,0.2,0.4c0,0,0.1,0,0.1,0c0.9,0,2.4-0.9,3.6-1.6
	c0.3-0.2,0.6-0.3,0.8-0.5c0.5-0.4,1-0.7,1.4-1c-1.5-1.3-1.4-3-1.4-3c0-0.6-1-1.9-2.3-1.8c-1.2,0.1-1.8,1.4-0.6,1.6
	c1.7,0.4,1.9,1.6,1.9,1.6s-0.7-0.4-1.4-0.6c-0.4-0.1-0.7-0.2-0.8-0.2c-0.5,0.4-1,0.8-2,1.1c-1.2,0.4-1.7,0.8-1.6,1.4
	C-52.7,200-52.5,200.3-52.3,200.4"/>
<path class="st0" d="M-35.9,253.4c-0.4-0.2-1.1-0.1-1.3,0c-1.5,0.6-2.6,1.2-3.7,1.8c-0.3,0.2-0.4,0.5-0.3,0.5
	c0.2,0.1,0.5,0.3,0.7,0.5c0.7-0.4,2.7-1.3,5.5-2.2C-35.4,253.7-35.7,253.6-35.9,253.4"/>
<path class="st0" d="M-27.8,251.8c-0.2-0.2-0.7-0.6-1.5-0.5c-1.6,0.2-3.5,0.5-5,1.1c-0.3,0.1-0.4,0.3-0.2,0.4
	c0.5,0.4,1.1,0.9,1.8,1.6c0.9,1.1,1.5,1.3,1.9,1.3c1.5-0.3,3-0.5,4.6-0.6c0.3,0,0.5,0,0.8,0c-0.2-0.3-0.4-0.6-0.7-1.1
	C-26.9,252.5-27.3,252.1-27.8,251.8"/>
<path class="st0" d="M-43.3,256.8c-1.9,1.7-1.7,4.9-1.4,6.6c1.3-1.4,2.9-2.7,4.6-3.9c0.3-0.2,0.7-0.5,1.1-0.7
	c-0.4-0.2-0.8-0.5-1.2-0.9c-1-0.8-1.7-1.2-2.2-1.4C-42.6,256.5-43,256.5-43.3,256.8"/>
<path class="st0" d="M-23,252c1.3,0.1,2.4,0.2,3.5,0.4c-0.3-0.6-0.6-0.9-0.7-0.9c-1.6-0.3-3.2-0.4-4.9-0.4h-0.2h-0.2
	c-0.4,0-0.8,0-1.2,0c0.2,0.2,0.5,0.6,0.7,0.9C-25,251.9-24,251.9-23,252"/>
<path class="st0" d="M-83.1,236.8c0.5,0,2-0.1,2.4-0.2c-1.1-0.2-3.2-1-3.4-3.9c0-0.3-0.3-2.9,2.5-5.1l1.2-0.9l-1.4,0
	c0,0-2.6-0.1-4.6-1.1c0,0-3.1-1.4-4.5-3.7l-0.4-0.6l-0.4,0.6c-0.2,0.2-4.2,5.6-1,11.2C-92.2,234-86.6,236.8-83.1,236.8"/>
<path class="st0" d="M-75.2,225.5c0.1,0.4-0.4,0.5-0.5,0.6c-5.5,3.2-6,5.2-5.8,6.8c0.2,1.8,1.8,1.9,2.5,1.9c0.7,0,1.6-0.2,2.2-0.6
	c0.5-0.6,1-1.2,1.4-1.8c2.2-2.9,4.8-5.4,7.9-6.2c1.4-0.4,3.4-0.7,5.1-0.5c4,0.5,6.4,2.6,7.2,4.1c-0.2-1.1-1.1-4-3.2-5.5
	c-2.1-1.5-4.3-2.9-8.1-4.3c-0.1-0.1-3.5-1.4-6.4-1.4c-0.7,0-1.4,0.1-1.9,0.2c-2.1,0.6-3.7,2-5.3,3.3c-1,0.9-2,1.7-3,2.3
	c1.1,0.4,2.9,0.6,5.1,0.6C-77.3,225-75.3,225.1-75.2,225.5"/>
<path class="st0" d="M-51.3,270.7c0,0,0.7-1,2.7-2.4c0.3-0.8,0.7-1.5,1.1-2.1c-1.2,0.7-2.4,1.4-3.5,2.2c-2,1.5-3.3,2.9-4,3.6
	c9.7,2.7,24.4-1.5,31.7-3.9c-0.4-0.5-0.8-1.1-1.1-1.7C-27.9,267.7-41.3,272.1-51.3,270.7"/>
<path class="st0" d="M16.7,229.1c0,0.1,0,0.2,0.1,0.3c0.7,0.5,2,1.7,3.3,3.2l0.6,0.7c1.9,2.3,4.3,5.1,8.8,5.2c4.9,0,7.6-3.2,8.4-4.3
	c-0.2,0-0.5,0.1-0.9,0.1c-0.2,0-0.5,0-0.7,0c-2.6-0.2-5.4-3.7-8-7.5c-1.1-1.6-2.4-3.4-3.2-4.1c-0.1-0.1-1.3-0.6-2.8-0.6
	C20.3,222,15.7,223.3,16.7,229.1"/>
<path class="st0" d="M-12.2,253.9c-0.4-0.8-5-2.2-6.2-2.1c0.3,0.6,0.6,1.5,0.9,2.6c0.3,1.4,0.8,2,1,2.2c1.9,0.6,3.5,1.4,4.8,2.2
	c0-0.4,0-0.8,0-1.3C-11.5,254.9-12.1,254-12.2,253.9"/>
<path class="st0" d="M36.6,232c0.2,0,0.4,0.1,0.6,0.1c0.8,0,1.4-0.3,1.9-0.5c0.9-2.5,0.4-5.4-0.3-7.2c-0.3-0.6-0.6-1.3-0.7-1.6
	l-0.5,0.6c-1.8,1.9-4.6,2.8-6.8,3.2C33.2,229.8,35.2,231.7,36.6,232"/>
<path class="st0" d="M10,243.5c2.4,1.7,5.1,3.9,5.7,5.3l0.1,0.3l-0.3,0c-0.3,0-0.6-0.1-0.9-0.1c-1.8,0-3.5,0.5-5.2,1.7
	c-3.8,2.6-3.6,6.7-3.4,8l0,0l0.3,1c0.6-1.1,2.5-4.1,5.3-4.1c0.9,0,1.9,0.3,2.8,1c1.3,0.7,2.6,2.9,3.2,5.6c0.8,3.4,0.3,6.6-1.3,8.7
	c-3.3,4.2-8.1,4.6-9.5,4.6c0.5,0.6,1.8,1.7,3.8,2c0.6,0.1,1.2,0.1,1.8,0.1c0.4,0,0.8,0,1.2,0c4.6-0.3,7.8-1.6,10.9-4.5
	c0.4-0.5,1.1-1.2,1.4-1.7c0.4-0.6,0.7-1.1,1-1.6c0.5-0.8,0.8-1.3,1.3-1.9c-2.3-2.2-4.4-6.3-1.8-11.8l0-0.1c1-2.1,2.6-3.7,2.6-3.7
	l0.7-0.6l0.2,1.2c0.3,1,1.4,4.8,4.1,5.2c0.2-0.9,0.3-1.6,0.4-3.2c0.5-8.6,4-10.6,5.2-11c-0.5-0.3-1.6-0.8-3.1-0.8h-0.1
	c-2.2,0-5.6,1-9.2,6l-0.2,0.3l-0.1-0.4c-0.4-1.7-1.7-5.1-5.8-8.6c-4.5-3.8-6.9-8.4-6.7-12.9c0.1-4.6,3.2-6.3,5-7c-0.1,0-0.9,0-1,0
	c-0.6,0-1.3,0.1-2.1,0.3c-1.7,0.5-10,4.1-11.9,8.2C1.2,235.9,6.6,241.1,10,243.5"/>
<path class="st0" d="M-7.4,256.6c-0.5-0.4-1.2-0.8-2.1-1.3c-0.3-0.2-0.6-0.4-1.1-0.4c0.1,0.3,0.1,0.7,0.2,1.1c1.8,1.1,2.9,2,3.6,2.7
	c0.2,0.3,0.4,0.7,0.6,1.1c0.2,0.5,0.4,1,0.5,1.5C-5.6,259.6-6,257.7-7.4,256.6"/>
<path class="st0" d="M12.4,257.5c-1,0.2-3.7,0.9-4.7,4.4c1.7,2.2,4.7,2.5,5.8,2.6l-0.7-0.9c-1.9-2.3-1.4-4.3-1-5.3
	C12,258,12.2,257.7,12.4,257.5"/>
<path class="st0" d="M-21.7,257.6c0.2,0,1.3,3.1,5,3.9c1.7,0.4,2.5-1.2,1.9-2.4c-3-1.4-6.9-2.5-11.4-2.3c-5,0.2-11,2.1-15.4,5.8
	c-0.1,0-0.1,0.1-0.2,0.1c0,0-0.1,0.1-0.2,0.1c-0.6,0.6-1,1-1.2,1.1c0,0,0,0,0,0c-2.3,2.5-2.5,4-2.5,4.4c0.9,0.5,11,0.1,21-3.7
	C-25,259.5-21.9,257.6-21.7,257.6"/>
<path class="st0" d="M-8,276.4c0.1-0.4,0.3-0.7,0.4-1.1c0-0.1,0.1-0.2,0.1-0.3c-0.3-0.6-1-1.3-1.2-1.6c-0.3,1.2-0.8,2-1.3,3.2
	c-0.4,0.9-0.4,1.2-0.5,1.7c0.4,0,1.6,0,2,0.1C-8.5,278-8.3,277.3-8,276.4"/>
<path class="st0" d="M-10.8,282.8c-1.7,0.1-3.8-0.2-5.5-0.7c-7.3,3.3-14.5,9.9-16,11.2c0,0,0,0,0,0l-2.4,5.6
	c5.2-1.4,8.8-4.7,12.3-7.9c2.3-2.1,4.7-4.3,7.5-5.8c4.2-2.4,7.5-2.5,9.7-0.6c0,0,0,0,0,0c2.3,2.5,1.6,6.4,0.9,8.4h0.4
	c1.3-2.3,1.8-6.5,0.3-9.4c-1.1-2-3.5-3.8-7.1-3.4c0.1,0.4,0.4,0.8,1.1,1.4C-8.6,282.7-10.8,282.8-10.8,282.8"/>
<path class="st0" d="M-65.8,264.3c1.7,0.3,3.5-0.5,4.7-1.8c0-0.9-0.4-2.3-1.5-3.5c-0.8-0.8-1.8-1.3-3.1-1.3c0.3,0.3,0.6,0.7,0.7,1.1
	C-63.4,262.6-65.8,264.3-65.8,264.3"/>
<path class="st0" d="M-21.8,269.5c-4.6,1.6-13.4,4.4-22,5c2.9,1.7,9.5,6.5,11.5,16.4c2.9-2.7,8.6-7.1,14.1-9.8c0,0,0,0,0,0
	c0.1,0,0.1-0.1,0.2-0.1c-0.3-0.3-5.5-4.1-2.1-10.5C-20.3,270.5-21,270.1-21.8,269.5"/>
</svg>
